<mxfile host="Electron" modified="2023-10-18T10:44:09.983Z" agent="Mozilla/5.0 (Windows NT 10.0; Win64; x64) AppleWebKit/537.36 (KHTML, like Gecko) draw.io/22.0.2 Chrome/114.0.5735.289 Electron/25.8.4 Safari/537.36" etag="jAnQBZ5_ulQ10JDoZg9J" version="22.0.2" type="device">
  <diagram name="Page-1" id="kjbyhZp_Dc9AUFmmBuFm">
    <mxGraphModel dx="823" dy="1641" grid="1" gridSize="10" guides="1" tooltips="1" connect="1" arrows="1" fold="1" page="1" pageScale="1" pageWidth="1654" pageHeight="1169" math="0" shadow="0">
      <root>
        <mxCell id="0" />
        <mxCell id="1" parent="0" />
        <mxCell id="xIWlXGRnzzvsZT3QZqUz-14" value="Containers" parent="0" />
        <mxCell id="xIWlXGRnzzvsZT3QZqUz-6" value="&lt;b&gt;RP2040&lt;/b&gt;" style="rounded=1;whiteSpace=wrap;html=1;verticalAlign=top;" parent="xIWlXGRnzzvsZT3QZqUz-14" vertex="1">
          <mxGeometry x="360" y="127.5" width="320" height="235" as="geometry" />
        </mxCell>
        <mxCell id="xIWlXGRnzzvsZT3QZqUz-1" value="STM32" style="rounded=1;whiteSpace=wrap;html=1;verticalAlign=top;" parent="xIWlXGRnzzvsZT3QZqUz-14" vertex="1">
          <mxGeometry x="870" y="70" width="540" height="340" as="geometry" />
        </mxCell>
        <mxCell id="xIWlXGRnzzvsZT3QZqUz-15" value="Components" parent="0" />
        <mxCell id="xIWlXGRnzzvsZT3QZqUz-45" value="Buffer" style="rounded=1;whiteSpace=wrap;html=1;" parent="xIWlXGRnzzvsZT3QZqUz-15" vertex="1">
          <mxGeometry x="560" y="205" width="60" height="70" as="geometry" />
        </mxCell>
        <mxCell id="xIWlXGRnzzvsZT3QZqUz-10" style="edgeStyle=orthogonalEdgeStyle;rounded=1;orthogonalLoop=1;jettySize=auto;html=1;exitX=1;exitY=0.5;exitDx=0;exitDy=0;entryX=0;entryY=0.5;entryDx=0;entryDy=0;" parent="xIWlXGRnzzvsZT3QZqUz-15" source="xIWlXGRnzzvsZT3QZqUz-3" target="xIWlXGRnzzvsZT3QZqUz-4" edge="1">
          <mxGeometry relative="1" as="geometry" />
        </mxCell>
        <mxCell id="xIWlXGRnzzvsZT3QZqUz-3" value="Mic" style="ellipse;whiteSpace=wrap;html=1;aspect=fixed;" parent="xIWlXGRnzzvsZT3QZqUz-15" vertex="1">
          <mxGeometry x="80" y="220" width="50" height="50" as="geometry" />
        </mxCell>
        <mxCell id="xIWlXGRnzzvsZT3QZqUz-31" style="edgeStyle=orthogonalEdgeStyle;shape=connector;rounded=1;orthogonalLoop=1;jettySize=auto;html=1;exitX=0.5;exitY=1;exitDx=0;exitDy=0;entryX=0.5;entryY=1;entryDx=0;entryDy=0;labelBackgroundColor=default;strokeColor=default;fontFamily=Helvetica;fontSize=11;fontColor=default;endArrow=classic;" parent="xIWlXGRnzzvsZT3QZqUz-15" source="xIWlXGRnzzvsZT3QZqUz-4" target="xIWlXGRnzzvsZT3QZqUz-3" edge="1">
          <mxGeometry relative="1" as="geometry" />
        </mxCell>
        <mxCell id="xIWlXGRnzzvsZT3QZqUz-4" value="Mic" style="ellipse;whiteSpace=wrap;html=1;aspect=fixed;" parent="xIWlXGRnzzvsZT3QZqUz-15" vertex="1">
          <mxGeometry x="150" y="220" width="50" height="50" as="geometry" />
        </mxCell>
        <mxCell id="xIWlXGRnzzvsZT3QZqUz-12" value="TDM" style="edgeStyle=orthogonalEdgeStyle;rounded=1;orthogonalLoop=1;jettySize=auto;html=1;exitX=1;exitY=0.5;exitDx=0;exitDy=0;entryX=0;entryY=0.5;entryDx=0;entryDy=0;" parent="xIWlXGRnzzvsZT3QZqUz-15" source="xIWlXGRnzzvsZT3QZqUz-5" target="xIWlXGRnzzvsZT3QZqUz-24" edge="1">
          <mxGeometry relative="1" as="geometry" />
        </mxCell>
        <mxCell id="xIWlXGRnzzvsZT3QZqUz-30" style="edgeStyle=orthogonalEdgeStyle;shape=connector;rounded=1;orthogonalLoop=1;jettySize=auto;html=1;exitX=0.5;exitY=1;exitDx=0;exitDy=0;entryX=0.5;entryY=1;entryDx=0;entryDy=0;labelBackgroundColor=default;strokeColor=default;fontFamily=Helvetica;fontSize=11;fontColor=default;endArrow=classic;" parent="xIWlXGRnzzvsZT3QZqUz-15" source="xIWlXGRnzzvsZT3QZqUz-5" target="xIWlXGRnzzvsZT3QZqUz-4" edge="1">
          <mxGeometry relative="1" as="geometry" />
        </mxCell>
        <mxCell id="xIWlXGRnzzvsZT3QZqUz-5" value="Mic" style="ellipse;whiteSpace=wrap;html=1;aspect=fixed;" parent="xIWlXGRnzzvsZT3QZqUz-15" vertex="1">
          <mxGeometry x="260" y="220" width="50" height="50" as="geometry" />
        </mxCell>
        <mxCell id="xIWlXGRnzzvsZT3QZqUz-13" value="SPI" style="edgeStyle=orthogonalEdgeStyle;shape=connector;rounded=1;orthogonalLoop=1;jettySize=auto;html=1;exitX=1;exitY=0.5;exitDx=0;exitDy=0;entryX=0;entryY=0.5;entryDx=0;entryDy=0;labelBackgroundColor=default;strokeColor=default;fontFamily=Helvetica;fontSize=11;fontColor=default;endArrow=classic;startArrow=none;startFill=0;" parent="xIWlXGRnzzvsZT3QZqUz-15" source="7SRY4WB_B94mU42DSuIL-2" target="xIWlXGRnzzvsZT3QZqUz-23" edge="1">
          <mxGeometry relative="1" as="geometry">
            <mxPoint x="619.3399999999999" y="244.94000000000005" as="sourcePoint" />
          </mxGeometry>
        </mxCell>
        <mxCell id="xIWlXGRnzzvsZT3QZqUz-7" value="..." style="text;html=1;strokeColor=none;fillColor=none;align=center;verticalAlign=middle;whiteSpace=wrap;rounded=0;fontSize=20;fontStyle=1" parent="xIWlXGRnzzvsZT3QZqUz-15" vertex="1">
          <mxGeometry x="200" y="215" width="60" height="30" as="geometry" />
        </mxCell>
        <mxCell id="xIWlXGRnzzvsZT3QZqUz-11" style="edgeStyle=orthogonalEdgeStyle;rounded=1;orthogonalLoop=1;jettySize=auto;html=1;exitX=1;exitY=0.5;exitDx=0;exitDy=0;entryX=0;entryY=0.5;entryDx=0;entryDy=0;" parent="xIWlXGRnzzvsZT3QZqUz-15" source="xIWlXGRnzzvsZT3QZqUz-4" target="xIWlXGRnzzvsZT3QZqUz-5" edge="1">
          <mxGeometry relative="1" as="geometry">
            <Array as="points">
              <mxPoint x="230" y="245" />
              <mxPoint x="230" y="245" />
            </Array>
          </mxGeometry>
        </mxCell>
        <mxCell id="xIWlXGRnzzvsZT3QZqUz-18" value="x16" style="edgeStyle=orthogonalEdgeStyle;shape=connector;rounded=1;orthogonalLoop=1;jettySize=auto;html=1;exitX=1;exitY=0.5;exitDx=0;exitDy=0;entryX=0;entryY=0.5;entryDx=0;entryDy=0;labelBackgroundColor=default;strokeColor=default;fontFamily=Helvetica;fontSize=11;fontColor=default;endArrow=classic;" parent="xIWlXGRnzzvsZT3QZqUz-15" source="xIWlXGRnzzvsZT3QZqUz-24" target="xIWlXGRnzzvsZT3QZqUz-17" edge="1">
          <mxGeometry relative="1" as="geometry">
            <mxPoint x="500" y="245" as="sourcePoint" />
          </mxGeometry>
        </mxCell>
        <mxCell id="7SRY4WB_B94mU42DSuIL-3" style="edgeStyle=orthogonalEdgeStyle;rounded=0;orthogonalLoop=1;jettySize=auto;html=1;exitX=1;exitY=0.5;exitDx=0;exitDy=0;entryX=0;entryY=0.5;entryDx=0;entryDy=0;" edge="1" parent="xIWlXGRnzzvsZT3QZqUz-15" source="xIWlXGRnzzvsZT3QZqUz-17" target="7SRY4WB_B94mU42DSuIL-2">
          <mxGeometry relative="1" as="geometry" />
        </mxCell>
        <mxCell id="xIWlXGRnzzvsZT3QZqUz-17" value="Buffer" style="rounded=1;whiteSpace=wrap;html=1;" parent="xIWlXGRnzzvsZT3QZqUz-15" vertex="1">
          <mxGeometry x="550" y="210" width="60" height="70" as="geometry" />
        </mxCell>
        <mxCell id="xIWlXGRnzzvsZT3QZqUz-19" value="RxReady" style="edgeStyle=orthogonalEdgeStyle;shape=connector;rounded=1;orthogonalLoop=1;jettySize=auto;html=1;exitX=0.995;exitY=0.327;exitDx=0;exitDy=0;entryX=0;entryY=0.5;entryDx=0;entryDy=0;labelBackgroundColor=default;strokeColor=default;fontFamily=Helvetica;fontSize=11;fontColor=default;endArrow=none;exitPerimeter=0;startArrow=classic;startFill=1;endFill=0;" parent="xIWlXGRnzzvsZT3QZqUz-15" source="xIWlXGRnzzvsZT3QZqUz-6" target="xIWlXGRnzzvsZT3QZqUz-38" edge="1">
          <mxGeometry x="-0.7082" relative="1" as="geometry">
            <Array as="points">
              <mxPoint x="890" y="204" />
              <mxPoint x="890" y="130" />
            </Array>
            <mxPoint as="offset" />
          </mxGeometry>
        </mxCell>
        <mxCell id="xIWlXGRnzzvsZT3QZqUz-22" style="edgeStyle=orthogonalEdgeStyle;shape=connector;orthogonalLoop=1;jettySize=auto;html=1;exitX=0.25;exitY=1;exitDx=0;exitDy=0;entryX=0.75;entryY=0;entryDx=0;entryDy=0;labelBackgroundColor=default;strokeColor=default;fontFamily=Helvetica;fontSize=11;fontColor=default;endArrow=classic;curved=1;" parent="xIWlXGRnzzvsZT3QZqUz-15" source="xIWlXGRnzzvsZT3QZqUz-20" target="xIWlXGRnzzvsZT3QZqUz-17" edge="1">
          <mxGeometry relative="1" as="geometry" />
        </mxCell>
        <mxCell id="xIWlXGRnzzvsZT3QZqUz-20" value="SPI Master: RP2040.&lt;br&gt;RP2040 &quot;pushes&quot; samples to STM32. If STM32 is not ready the buffers are over written" style="rounded=1;whiteSpace=wrap;html=1;fillColor=#dae8fc;strokeColor=#6c8ebf;fontStyle=2" parent="xIWlXGRnzzvsZT3QZqUz-15" vertex="1">
          <mxGeometry x="390" y="-50" width="260" height="80" as="geometry" />
        </mxCell>
        <mxCell id="xIWlXGRnzzvsZT3QZqUz-33" value="x16" style="edgeStyle=orthogonalEdgeStyle;shape=connector;rounded=1;orthogonalLoop=1;jettySize=auto;html=1;exitX=1;exitY=0.5;exitDx=0;exitDy=0;entryX=0;entryY=0.5;entryDx=0;entryDy=0;labelBackgroundColor=default;strokeColor=default;fontFamily=Helvetica;fontSize=11;fontColor=default;endArrow=classic;" parent="xIWlXGRnzzvsZT3QZqUz-15" source="xIWlXGRnzzvsZT3QZqUz-23" target="xIWlXGRnzzvsZT3QZqUz-32" edge="1">
          <mxGeometry relative="1" as="geometry" />
        </mxCell>
        <mxCell id="xIWlXGRnzzvsZT3QZqUz-35" value="Reference channel" style="edgeStyle=orthogonalEdgeStyle;shape=connector;rounded=1;orthogonalLoop=1;jettySize=auto;html=1;exitX=1;exitY=0.25;exitDx=0;exitDy=0;entryX=0;entryY=0.5;entryDx=0;entryDy=0;labelBackgroundColor=default;strokeColor=default;fontFamily=Helvetica;fontSize=11;fontColor=default;endArrow=classic;" parent="xIWlXGRnzzvsZT3QZqUz-15" source="xIWlXGRnzzvsZT3QZqUz-23" target="xIWlXGRnzzvsZT3QZqUz-34" edge="1">
          <mxGeometry x="-0.4017" relative="1" as="geometry">
            <Array as="points">
              <mxPoint x="970" y="228" />
              <mxPoint x="970" y="190" />
              <mxPoint x="1160" y="190" />
              <mxPoint x="1160" y="210" />
            </Array>
            <mxPoint as="offset" />
          </mxGeometry>
        </mxCell>
        <mxCell id="xIWlXGRnzzvsZT3QZqUz-23" value="Buffer x samples" style="rounded=1;whiteSpace=wrap;html=1;" parent="xIWlXGRnzzvsZT3QZqUz-15" vertex="1">
          <mxGeometry x="890" y="210" width="50" height="70" as="geometry" />
        </mxCell>
        <mxCell id="xIWlXGRnzzvsZT3QZqUz-27" style="edgeStyle=orthogonalEdgeStyle;shape=connector;rounded=1;orthogonalLoop=1;jettySize=auto;html=1;exitX=1;exitY=0.5;exitDx=0;exitDy=0;entryX=0;entryY=0.5;entryDx=0;entryDy=0;labelBackgroundColor=default;strokeColor=default;fontFamily=Helvetica;fontSize=11;fontColor=default;endArrow=classic;" parent="xIWlXGRnzzvsZT3QZqUz-15" source="xIWlXGRnzzvsZT3QZqUz-24" target="xIWlXGRnzzvsZT3QZqUz-26" edge="1">
          <mxGeometry relative="1" as="geometry" />
        </mxCell>
        <mxCell id="xIWlXGRnzzvsZT3QZqUz-29" value="Clk, WS" style="edgeStyle=orthogonalEdgeStyle;shape=connector;rounded=1;orthogonalLoop=1;jettySize=auto;html=1;exitX=0;exitY=0.75;exitDx=0;exitDy=0;entryX=0.5;entryY=1;entryDx=0;entryDy=0;labelBackgroundColor=default;strokeColor=default;fontFamily=Helvetica;fontSize=11;fontColor=default;endArrow=classic;" parent="xIWlXGRnzzvsZT3QZqUz-15" source="xIWlXGRnzzvsZT3QZqUz-24" target="xIWlXGRnzzvsZT3QZqUz-5" edge="1">
          <mxGeometry x="0.2414" relative="1" as="geometry">
            <Array as="points">
              <mxPoint x="345" y="260" />
              <mxPoint x="345" y="290" />
              <mxPoint x="285" y="290" />
            </Array>
            <mxPoint as="offset" />
          </mxGeometry>
        </mxCell>
        <mxCell id="xIWlXGRnzzvsZT3QZqUz-24" value="PIO" style="rounded=1;whiteSpace=wrap;html=1;" parent="xIWlXGRnzzvsZT3QZqUz-15" vertex="1">
          <mxGeometry x="380" y="215" width="40" height="60" as="geometry" />
        </mxCell>
        <mxCell id="xIWlXGRnzzvsZT3QZqUz-28" style="edgeStyle=orthogonalEdgeStyle;shape=connector;rounded=1;orthogonalLoop=1;jettySize=auto;html=1;exitX=1;exitY=0.5;exitDx=0;exitDy=0;entryX=0;entryY=0.5;entryDx=0;entryDy=0;labelBackgroundColor=default;strokeColor=default;fontFamily=Helvetica;fontSize=11;fontColor=default;endArrow=classic;" parent="xIWlXGRnzzvsZT3QZqUz-15" source="xIWlXGRnzzvsZT3QZqUz-26" target="xIWlXGRnzzvsZT3QZqUz-17" edge="1">
          <mxGeometry relative="1" as="geometry">
            <Array as="points">
              <mxPoint x="530" y="205" />
              <mxPoint x="530" y="245" />
            </Array>
          </mxGeometry>
        </mxCell>
        <mxCell id="xIWlXGRnzzvsZT3QZqUz-26" value="Filtering?" style="rounded=1;whiteSpace=wrap;html=1;dashed=1;fontStyle=2" parent="xIWlXGRnzzvsZT3QZqUz-15" vertex="1">
          <mxGeometry x="460" y="190" width="60" height="30" as="geometry" />
        </mxCell>
        <mxCell id="xIWlXGRnzzvsZT3QZqUz-36" value="1 channel" style="edgeStyle=orthogonalEdgeStyle;shape=connector;rounded=1;orthogonalLoop=1;jettySize=auto;html=1;exitX=1;exitY=0.5;exitDx=0;exitDy=0;entryX=0;entryY=0.5;entryDx=0;entryDy=0;labelBackgroundColor=default;strokeColor=default;fontFamily=Helvetica;fontSize=11;fontColor=default;endArrow=classic;" parent="xIWlXGRnzzvsZT3QZqUz-15" source="xIWlXGRnzzvsZT3QZqUz-32" target="xIWlXGRnzzvsZT3QZqUz-34" edge="1">
          <mxGeometry x="-0.5556" relative="1" as="geometry">
            <mxPoint as="offset" />
          </mxGeometry>
        </mxCell>
        <mxCell id="xIWlXGRnzzvsZT3QZqUz-37" value="Steering angle °" style="edgeStyle=orthogonalEdgeStyle;shape=connector;rounded=1;orthogonalLoop=1;jettySize=auto;html=1;labelBackgroundColor=default;strokeColor=default;fontFamily=Helvetica;fontSize=11;fontColor=default;endArrow=classic;entryX=0.5;entryY=0;entryDx=0;entryDy=0;exitX=0;exitY=0.75;exitDx=0;exitDy=0;" parent="xIWlXGRnzzvsZT3QZqUz-15" source="xIWlXGRnzzvsZT3QZqUz-38" target="xIWlXGRnzzvsZT3QZqUz-32" edge="1">
          <mxGeometry x="-0.1111" relative="1" as="geometry">
            <mxPoint x="998.4285714285716" y="146.1428571428571" as="targetPoint" />
            <mxPoint x="1054" y="145" as="sourcePoint" />
            <Array as="points">
              <mxPoint x="1075" y="140" />
            </Array>
            <mxPoint as="offset" />
          </mxGeometry>
        </mxCell>
        <mxCell id="xIWlXGRnzzvsZT3QZqUz-32" value="Beam steer" style="rounded=1;whiteSpace=wrap;html=1;" parent="xIWlXGRnzzvsZT3QZqUz-15" vertex="1">
          <mxGeometry x="1050" y="210" width="50" height="70" as="geometry" />
        </mxCell>
        <mxCell id="xIWlXGRnzzvsZT3QZqUz-34" value="1/3 Octave bands" style="rounded=1;whiteSpace=wrap;html=1;" parent="xIWlXGRnzzvsZT3QZqUz-15" vertex="1">
          <mxGeometry x="1250" y="175" width="50" height="70" as="geometry" />
        </mxCell>
        <mxCell id="xIWlXGRnzzvsZT3QZqUz-38" value="Controller" style="rounded=1;whiteSpace=wrap;html=1;" parent="xIWlXGRnzzvsZT3QZqUz-15" vertex="1">
          <mxGeometry x="1140" y="110" width="80" height="40" as="geometry" />
        </mxCell>
        <mxCell id="xIWlXGRnzzvsZT3QZqUz-40" style="edgeStyle=orthogonalEdgeStyle;shape=connector;orthogonalLoop=1;jettySize=auto;html=1;exitX=0;exitY=0.75;exitDx=0;exitDy=0;labelBackgroundColor=default;strokeColor=default;fontFamily=Helvetica;fontSize=11;fontColor=default;endArrow=classic;curved=1;" parent="xIWlXGRnzzvsZT3QZqUz-15" source="xIWlXGRnzzvsZT3QZqUz-39" edge="1">
          <mxGeometry relative="1" as="geometry">
            <mxPoint x="1050" y="160" as="targetPoint" />
            <Array as="points">
              <mxPoint x="980" y="-5" />
              <mxPoint x="980" y="160" />
            </Array>
          </mxGeometry>
        </mxCell>
        <mxCell id="xIWlXGRnzzvsZT3QZqUz-39" value="Depending on processing speed:&lt;br&gt;1. the beam can &quot;spin around&quot; like a radar and not every angle will capture every sample&lt;br&gt;2. For every received buffer of sample all steering angles will have octave bands calculated" style="rounded=1;whiteSpace=wrap;html=1;fillColor=#dae8fc;strokeColor=#6c8ebf;fontStyle=2" parent="xIWlXGRnzzvsZT3QZqUz-15" vertex="1">
          <mxGeometry x="1000" y="-80" width="290" height="100" as="geometry" />
        </mxCell>
        <mxCell id="xIWlXGRnzzvsZT3QZqUz-44" style="edgeStyle=orthogonalEdgeStyle;shape=connector;orthogonalLoop=1;jettySize=auto;html=1;exitX=0.75;exitY=1;exitDx=0;exitDy=0;labelBackgroundColor=default;strokeColor=default;fontFamily=Helvetica;fontSize=11;fontColor=default;endArrow=classic;curved=1;" parent="xIWlXGRnzzvsZT3QZqUz-15" source="xIWlXGRnzzvsZT3QZqUz-43" edge="1">
          <mxGeometry relative="1" as="geometry">
            <mxPoint x="820" y="180" as="targetPoint" />
          </mxGeometry>
        </mxCell>
        <mxCell id="xIWlXGRnzzvsZT3QZqUz-43" value="Side band comms to allow config and control?" style="rounded=1;whiteSpace=wrap;html=1;fillColor=#dae8fc;strokeColor=#6c8ebf;fontStyle=2" parent="xIWlXGRnzzvsZT3QZqUz-15" vertex="1">
          <mxGeometry x="730" y="-20" width="170" height="50" as="geometry" />
        </mxCell>
        <mxCell id="xIWlXGRnzzvsZT3QZqUz-42" value="Side band comms?" style="edgeStyle=orthogonalEdgeStyle;shape=connector;rounded=1;orthogonalLoop=1;jettySize=auto;html=1;exitX=0;exitY=0.25;exitDx=0;exitDy=0;entryX=1;entryY=0.25;entryDx=0;entryDy=0;labelBackgroundColor=default;strokeColor=default;fontFamily=Helvetica;fontSize=11;fontColor=default;endArrow=classic;dashed=1;" parent="xIWlXGRnzzvsZT3QZqUz-15" source="xIWlXGRnzzvsZT3QZqUz-38" target="xIWlXGRnzzvsZT3QZqUz-6" edge="1">
          <mxGeometry x="0.696" y="-6" relative="1" as="geometry">
            <Array as="points">
              <mxPoint x="850" y="120" />
              <mxPoint x="850" y="186" />
            </Array>
            <mxPoint as="offset" />
          </mxGeometry>
        </mxCell>
        <mxCell id="7SRY4WB_B94mU42DSuIL-2" value="Master" style="rounded=1;whiteSpace=wrap;html=1;direction=south;rotation=-90;" vertex="1" parent="xIWlXGRnzzvsZT3QZqUz-15">
          <mxGeometry x="635" y="230" width="60" height="30" as="geometry" />
        </mxCell>
      </root>
    </mxGraphModel>
  </diagram>
</mxfile>
